<svg xmlns="http://www.w3.org/2000/svg" xmlns:xlink="http://www.w3.org/1999/xlink" width="747.722" height="341.971" viewBox="0 0 747.722 341.971"><defs><linearGradient id="a" x1="0.11" y1="0.279" x2="0.818" y2="0.68" gradientUnits="objectBoundingBox"><stop offset="0" stop-color="#ff9600"/><stop offset="1" stop-color="#ff1c48"/></linearGradient></defs><g transform="translate(-0.052 -0.052)"><path d="M162.85,354.34l64.926-37.176-2.355-77.493,34.063,33.8,37.148-74.118.163,79.34,58.518-35.763.806-222.45-62.262,32.6-34.373,94.729-33.019-55.8L162.85,125Z" transform="translate(-98.158 -12.317)" fill="url(#a)"/><path d="M293.745,248.743l-46-24.772.794-215.53L290.783,31.2a3.141,3.141,0,1,0,2.978-5.531L246.885.429a3.137,3.137,0,0,0-3.907.762L183.328,32.4,137.548,7.734a3.141,3.141,0,0,0-2.978,5.531l44.744,24.109-31.236,86.082L118.449,73.38c-.032-.048-.068-.083-.1-.131s-.115-.167-.179-.246a3.061,3.061,0,0,0-.214-.238c-.068-.064-.131-.127-.2-.187a3.578,3.578,0,0,0-.29-.21c-.044-.028-.083-.068-.127-.1L73.884,46.729a3.141,3.141,0,0,0-3.176,5.416l38.558,22.664-57.3,29.708L5.229,79.335a3.142,3.142,0,0,0-2.982,5.531l46.737,25.181V332.129L4.8,305.891a3.141,3.141,0,0,0-3.2,5.4L49.977,340.01a3.141,3.141,0,0,0,1.588.441,1.387,1.387,0,0,0,.286-.02,1.328,1.328,0,0,1,.282.02,3.129,3.129,0,0,0,1.56-.417l62.929-36.029L162.4,328.674a3.142,3.142,0,1,0,2.982-5.531l-45.225-24.367-2.081-68.357,28.469,28.254a3.141,3.141,0,0,0,5.019-.822l31.224-62.3.139,66.118a3.176,3.176,0,0,0,.5,1.691,3.113,3.113,0,0,0,1.334,1.4l46.853,25.253a3.143,3.143,0,1,0,2.978-5.535l-42.421-22.862,52.582-32.13,46.011,24.788a3.109,3.109,0,0,0,1.489.377,3.141,3.141,0,0,0,1.489-5.908Zm-52.3-24.606-52.252,31.931-.155-73.753a3.145,3.145,0,0,0-5.956-1.4l-35.183,70.247-30.97-30.752a3.141,3.141,0,0,0-5.352,2.327l2.3,75.607L55.266,331.89V109.877l59.288-30.74,31.5,53.241a3.141,3.141,0,0,0,5.65-.524l33.964-93.586L242.235,8.652Z"/><path d="M1184.737,343.548l13.726,14.024c-6.79,7.087-19.928,11.812-31.149,11.812-22.731,0-40.444-16.676-40.444-40.154,0-23.029,16.974-39.706,39.265-39.706,23.915,0,37.939,18.157,37.939,46.944H1149.01c2.509,8.267,9.132,13.9,18.157,13.9C1173.222,350.354,1180.6,347.535,1184.737,343.548Zm-35.429-22.577h34.1c-2.069-7.544-7.675-12.4-16.386-12.4A18.415,18.415,0,0,0,1149.308,320.972Zm16.236-38.232h-14.612l17.121-23.029,19.341,3.542Z" transform="translate(-679.409 -156.559)"/><path d="M1345.48,271.59h21.552V374.773H1345.48Z" transform="translate(-811.219 -163.722)"/><path d="M1431.73,265.625a11.753,11.753,0,1,1,3.444,8.368A11.785,11.785,0,0,1,1431.73,265.625Zm.889,22.291h21.552v76.318h-21.54Z" transform="translate(-863.222 -153.183)"/><path d="M1569.907,343.536l13.73,14.024c-6.793,7.087-19.932,11.812-31.149,11.812-22.735,0-40.448-16.676-40.448-40.154,0-23.029,16.974-39.706,39.265-39.706,23.915,0,37.939,18.157,37.939,46.944h-55.06c2.509,8.267,9.132,13.9,18.157,13.9C1558.392,350.342,1565.774,347.523,1569.907,343.536Zm-19.337-60.817-21.838-19.487,19.337-3.542,17.125,23.029Zm-16.093,38.24h34.1c-2.065-7.544-7.675-12.4-16.386-12.4A18.423,18.423,0,0,0,1534.478,320.96Z" transform="translate(-911.645 -156.547)"/><path d="M1716.15,403.139l9.3-14.913a43.433,43.433,0,0,0,25.538,8.564c5.757,0,9.891-2.362,9.891-5.757,0-4.725-5.61-6.2-13.432-8.267-15.648-3.84-27.754-8.12-27.9-23.176-.147-14.469,11.812-24.8,29.819-24.8a55.553,55.553,0,0,1,30.117,9.446l-8.711,15.354c-6.937-4.28-14.909-6.79-21.405-6.79-5.313,0-9.005,1.918-9.005,4.574,0,4.133,3.1,5.317,13.436,8.12,13.135,3.395,27.75,7.822,27.75,24.506,0,15.056-12.253,24.653-31,24.653C1738.294,414.654,1725.3,410.516,1716.15,403.139Z" transform="translate(-1034.712 -201.828)"/><path d="M929.294,317.69l-28.191,47.5-28.314-47.488v-.016h-21.7v86.653h21.7V352.508L901.107,400l28.036-47.242.151-.254v51.84H951.14V317.69Z" transform="translate(-513.129 -191.518)"/><path d="M867.069,81.742v18.88h31.157V106.8H867.069V132.95h-6.6V75.56h41.183v6.182Z" transform="translate(-518.784 -45.527)"/><path d="M1019.76,126.675v26.317h-6.266v-6.75c-3.093,5.094-9.529,7.766-15.2,7.766-9.109,0-15.791-5.261-15.791-13.782,0-8.6,7.687-14.369,16.958-14.369a47.252,47.252,0,0,1,14.036,2.422v-1.588c0-5.845-2.339-12.527-11.7-12.527-4.344,0-8.688,1.918-12.615,3.923l-2.513-5.11c6.182-3.089,11.36-4.177,15.537-4.177C1013.994,108.8,1019.76,116.237,1019.76,126.675Zm-6.266,12.777v-6.6a49.235,49.235,0,0,0-13.031-1.751c-6.432,0-11.864,3.673-11.864,8.854,0,5.344,4.677,8.521,10.776,8.521C1005.057,148.482,1011.823,145.555,1013.494,139.453Z" transform="translate(-592.362 -65.569)"/><path d="M1102.64,131.357a22.754,22.754,0,0,1,22.39-22.557,22.235,22.235,0,0,1,15.37,6.353l-4.344,4.26a15.024,15.024,0,0,0-11.038-5.015c-8.6,0-15.791,7.766-15.791,16.958,0,9.271,7.187,17.042,15.791,17.042a15.214,15.214,0,0,0,11.276-5.265l4.356,4.26a22.065,22.065,0,0,1-15.632,6.6C1112.916,153.993,1102.64,143.634,1102.64,131.357Z" transform="translate(-664.799 -65.569)"/><path d="M1259.242,111.33v43.188h-6.266v-6.933c-2.505,4.594-8.1,7.941-14.2,7.941-9.529,0-16.208-6.933-16.208-16.708V111.33h6.266v26.646c0,7.016,4.427,11.947,10.776,11.947,7.27,0,13.365-5.1,13.365-11.118V111.33Z" transform="translate(-737.111 -67.094)"/><path d="M1347.13,73h6.266v58.407h-6.266Z" transform="translate(-812.213 -43.983)"/><path d="M1432.11,73v58.407h-6.261v-8.1a17.528,17.528,0,0,1-15.708,9.1c-11.36,0-19.881-9.355-19.881-22.632,0-13.2,8.521-22.557,19.881-22.557a17.536,17.536,0,0,1,15.708,9.1V73Zm-6.261,36.759c0-9.926-6.015-16.958-14.536-16.958-8.437,0-14.453,7.016-14.453,16.958s6.015,17.042,14.453,17.042c8.521.012,14.536-7.091,14.536-17.03Z" transform="translate(-838.218 -43.983)"/><path d="M1560.906,126.7v26.317h-6.265v-6.75c-3.089,5.094-9.529,7.766-15.2,7.766-9.109,0-15.791-5.261-15.791-13.782,0-8.6,7.687-14.369,16.958-14.369a47.2,47.2,0,0,1,14.032,2.422v-1.588c0-5.845-2.335-12.527-11.693-12.527-4.344,0-8.687,1.918-12.615,3.923l-2.505-5.094c6.182-3.089,11.36-4.177,15.537-4.177C1555.156,108.824,1560.906,116.261,1560.906,126.7Zm-6.265,12.777v-6.6a49.212,49.212,0,0,0-13.028-1.751c-6.432,0-11.864,3.673-11.864,8.854,0,5.344,4.677,8.521,10.776,8.521C1546.207,148.506,1552.969,145.579,1554.64,139.477Z" transform="translate(-918.645 -65.593)"/><path d="M1686.9,73v58.407h-6.266v-8.1a17.511,17.511,0,0,1-15.7,9.1c-11.364,0-19.884-9.355-19.884-22.632,0-13.2,8.521-22.557,19.884-22.557a17.519,17.519,0,0,1,15.7,9.1V73Zm-6.266,36.759c0-9.926-6.011-16.958-14.532-16.958-8.437,0-14.453,7.016-14.453,16.958s6.015,17.042,14.453,17.042c8.521.012,14.532-7.091,14.532-17.03Z" transform="translate(-991.843 -43.983)"/><path d="M1813.447,143.217l3.84,4.094c-3.756,4.094-11.36,6.682-17.375,6.682-11.515,0-21.882-9.438-21.882-22.719,0-12.865,9.688-22.473,21.3-22.473,13.027,0,20.464,9.859,20.464,24.979h-35.338c.917,8.437,6.845,14.62,15.366,14.62C1804.927,148.4,1810.771,146.143,1813.447,143.217Zm-28.9-15.036h29.068c-.838-7.766-5.432-13.782-14.036-13.782C1791.915,114.4,1785.713,119.826,1784.546,128.18Z" transform="translate(-1072.022 -65.569)"/></g></svg>